<svg xmlns="http://www.w3.org/2000/svg" viewBox="0 0 375.5 40"><defs><style>.cls-1{fill:#22b573;}.cls-2{fill:#ff0;}.cls-3{fill:#f7931e;}</style></defs><g id="Layer_2" data-name="Layer 2"><g id="Layer_1-2" data-name="Layer 1"><path class="cls-1" d="M11.62,0H236.57a0,0,0,0,1,0,0V40a0,0,0,0,1,0,0H11.62A11.62,11.62,0,0,1,0,28.38V11.62A11.62,11.62,0,0,1,11.62,0Z"/><rect class="cls-2" x="236.57" width="101.39" height="40"/><path class="cls-3" d="M338,0h25.93A11.62,11.62,0,0,1,375.5,11.62V28.38A11.62,11.62,0,0,1,363.88,40H338a0,0,0,0,1,0,0V0A0,0,0,0,1,338,0Z"/></g></g></svg>