<svg xmlns="http://www.w3.org/2000/svg" viewBox="0 0 375.5 40"><defs><style>.cls-1{fill:#22b573;}.cls-2{fill:#ff0;}</style></defs><g id="Layer_2" data-name="Layer 2"><g id="Layer_1-2" data-name="Layer 1"><path class="cls-1" d="M11.62,0H319.11a0,0,0,0,1,0,0V40a0,0,0,0,1,0,0H11.62A11.62,11.62,0,0,1,0,28.38V11.62A11.62,11.62,0,0,1,11.62,0Z"/><path class="cls-2" d="M319.19,0h44.7A11.62,11.62,0,0,1,375.5,11.62V28.38A11.62,11.62,0,0,1,363.88,40h-44.7a0,0,0,0,1,0,0V0A0,0,0,0,1,319.19,0Z"/></g></g></svg>