<svg xmlns="http://www.w3.org/2000/svg" viewBox="0 0 375.5 40"><defs><style>.cls-1{fill:#f7931e;}.cls-2{fill:red;}.cls-3{fill:#22b573;}.cls-4{fill:#ff0;}</style></defs><g id="Layer_2" data-name="Layer 2"><g id="Layer_1-2" data-name="Layer 1"><rect class="cls-1" x="319.18" width="37.55" height="40"/><path class="cls-2" d="M356.73,0h7.16A11.62,11.62,0,0,1,375.5,11.62V28.38A11.62,11.62,0,0,1,363.88,40h-7.16a0,0,0,0,1,0,0V0A0,0,0,0,1,356.73,0Z"/><path class="cls-3" d="M11.62,0H247.83a0,0,0,0,1,0,0V40a0,0,0,0,1,0,0H11.62A11.62,11.62,0,0,1,0,28.38V11.62A11.62,11.62,0,0,1,11.62,0Z"/><rect class="cls-4" x="247.83" width="71.35" height="40"/></g></g></svg>