<svg xmlns="http://www.w3.org/2000/svg" viewBox="0 0 791.27 421.48"><defs><style>.cls-1,.cls-2,.cls-3,.cls-4{fill:none;stroke-linecap:round;stroke-miterlimit:10;}.cls-1{stroke:red;}.cls-1,.cls-2{stroke-width:8px;}.cls-2{stroke:#22b573;}.cls-3,.cls-4{stroke:#000;stroke-dasharray:7;}.cls-3{stroke-width:4px;}</style></defs><g id="Layer_2" data-name="Layer 2"><g id="Layer_1-2" data-name="Layer 1"><path class="cls-1" d="M61.1,99.14s31.81,267.35,102.65,93.78,96.1,78.69,96.1,78.69,25.34,213.66,77.64-150c0,0,21.25-157,115.1,86.42s205.05-27.21,205.05-27.21S715.87,11.64,754,202.85"/><path class="cls-2" d="M61.1,237.65s67.9,183.54,94.54,77.51c25.48-101.42,95,21.4,95,21.4s58,91.9,112.48-75.54c0,0,31-129.87,89.46,37.9,42.58,122.27,205.05-33.22,205.05-33.22s61.77-67,96.34,83.32"/><path d="M44.26,404.44h1.87l6.65,16.75H51.05l-1.8-4.48H40.8L39,421.19H37.39Zm.81,1.59-3.65,9.24H48.7Z"/><path d="M67.18,415.34c0,4.94-3.63,6.14-6.08,6.14S55,420.28,55,415.34v-10.9h1.66v10.9c0,2.73,1.51,4.7,4.41,4.7s4.42-2,4.42-4.7v-10.9h1.66Z"/><path d="M82.63,413.56H78.74v-1.44h5.55v8.33a12.63,12.63,0,0,1-5.21,1c-5.28,0-8.45-3.48-8.45-8.66s3.27-8.67,8.45-8.67a11.75,11.75,0,0,1,4.49.8l-.19,1.53a8.85,8.85,0,0,0-4.3-.89c-4.34,0-6.79,3.08-6.79,7.23S74.66,420,79.08,420a8.51,8.51,0,0,0,3.55-.6Z"/><path d="M108.05,419.06a6.6,6.6,0,0,0,3.69,1c2.07,0,3.77-1.05,3.77-3.43,0-3.29-7.68-3.7-7.68-8.09,0-2.69,2.35-4.37,5.3-4.37a9.8,9.8,0,0,1,3.29.56l-.26,1.51a6.79,6.79,0,0,0-3-.63c-1.73,0-3.62.72-3.62,2.88,0,3.36,7.68,3.39,7.68,8.28,0,3.39-2.91,4.73-5.5,4.73a9.46,9.46,0,0,1-3.79-.72Z"/><path d="M120.5,404.44h8.21v1.44h-6.55v6h6.22v1.44h-6.22v6.45H129v1.44h-8.5Z"/><path d="M132.5,404.44h4.13c3.15,0,5.19,1.59,5.19,4.75s-2.36,4.76-5.36,4.76h-2.3v7.24H132.5Zm1.66,8.07h1.15c2.5,0,4.85-.29,4.85-3.32a3,3,0,0,0-3.31-3.31h-2.69Z"/><path d="M171.12,404.15c5,0,7.42,4.13,7.37,8.67-.05,5.13-2.55,8.66-7.37,8.66s-7.32-3.53-7.37-8.66C163.7,408.28,166.08,404.15,171.12,404.15Zm-5.71,8.67c0,3.55,1.77,7.22,5.71,7.22s5.71-3.67,5.71-7.22-1.77-7.23-5.71-7.23S165.41,409.27,165.41,412.82Z"/><path d="M193.34,406.31a8.67,8.67,0,0,0-3.74-.72c-4.35,0-6.79,3.08-6.79,7.23s2.37,7.22,6.79,7.22a8.22,8.22,0,0,0,3.74-.72l.1,1.44a9.06,9.06,0,0,1-3.84.72c-5.28,0-8.45-3.48-8.45-8.66s3.27-8.67,8.45-8.67a10.75,10.75,0,0,1,3.84.63Z"/><path d="M201,405.88H196v-1.44h11.55v1.44h-5v15.31H201Z"/><path d="M229.65,404.44h2.09l8.52,14.74h.05V404.44H242v16.75h-2.24l-8.37-14.44h-.05v14.44h-1.66Z"/><path d="M252.48,404.15c5,0,7.41,4.13,7.37,8.67-.05,5.13-2.55,8.66-7.37,8.66s-7.32-3.53-7.37-8.66C245.06,408.28,247.44,404.15,252.48,404.15Zm-5.71,8.67c0,3.55,1.77,7.22,5.71,7.22s5.71-3.67,5.71-7.22-1.77-7.23-5.71-7.23S246.77,409.27,246.77,412.82Z"/><path d="M269.3,421.19h-1.77l-6.24-16.75H263l5.4,15.1,5.59-15.1h1.63Z"/><path d="M297.74,404.44h4.15c6,0,8.38,3.46,8.38,8.35,0,6.08-4.06,8.4-9.6,8.4h-2.93Zm1.66,15.31h1.37c4.75,0,7.84-1.92,7.84-7.05s-3-6.82-6.79-6.82H299.4Z"/><path d="M313.89,404.44h8.21v1.44h-6.55v6h6.22v1.44h-6.22v6.45h6.84v1.44h-8.5Z"/><path d="M337.39,406.31a8.73,8.73,0,0,0-3.74-.72c-4.35,0-6.8,3.08-6.8,7.23s2.38,7.22,6.8,7.22a8.22,8.22,0,0,0,3.74-.72l.1,1.44a9.12,9.12,0,0,1-3.84.72c-5.28,0-8.45-3.48-8.45-8.66s3.26-8.67,8.45-8.67a10.79,10.79,0,0,1,3.84.63Z"/><path d="M365.85,416.87c0,2.57-1.15,4.61-3.93,4.61a5.11,5.11,0,0,1-1.73-.29v-1.46a3.78,3.78,0,0,0,1.56.31c1.85,0,2.45-1.46,2.45-3.12V404.44h1.65Z"/><path d="M375,404.44h1.87l6.65,16.75h-1.73l-1.8-4.48h-8.44l-1.81,4.48h-1.6Zm.82,1.59-3.65,9.24h7.27Z"/><path d="M385.7,404.44h2.09l8.52,14.74h.05V404.44H398v16.75h-2.23l-8.37-14.44h-.05v14.44H385.7Z"/><path d="M421.72,404.44h8v1.44h-6.31v6h6v1.44h-6v7.89h-1.66Z"/><path d="M432.6,404.44h8.2v1.44h-6.55v6h6.22v1.44h-6.22v6.45h6.84v1.44H432.6Z"/><path d="M444.45,404.44h4c2.73,0,5.3.91,5.3,4.13a3.46,3.46,0,0,1-3.05,3.82v0a3.94,3.94,0,0,1,3.56,4c0,3.65-3,4.77-6.46,4.77h-3.34Zm1.66,15.31h1.73c2.23,0,4.75-.6,4.75-3.26,0-3-2.57-3.29-5-3.29h-1.46Zm.05-8H448c1.76,0,4.08-.45,4.08-3.12,0-2.42-2.23-2.76-3.64-2.76h-2.28Z"/><path d="M478,404.44h2.56l6.13,14.74,6.14-14.74h2.38v16.75h-1.66V406.1h-.05l-6.1,15.09H486l-6.29-15.09h-.05v15.09H478Z"/><path d="M504.4,404.44h1.88l6.65,16.75H511.2l-1.8-4.48H501l-1.8,4.48h-1.61Zm.82,1.59-3.65,9.24h7.28Z"/><path d="M515.35,404.44h4.32c3,0,4.92,1.27,4.92,4.35a3.94,3.94,0,0,1-3.72,3.86v.05c1.34.17,1.63.89,2.16,2l2.86,6.48h-1.83l-2.42-5.66c-1-2.16-1.68-2.23-3.27-2.23H517v7.89h-1.65Zm1.65,7.42h1.76c1.94,0,4.17-.75,4.17-3.07,0-2.74-1.94-2.91-4.22-2.91H517Z"/><path d="M553.77,404.44h1.88l6.64,16.75h-1.73l-1.79-4.48h-8.45l-1.8,4.48h-1.61Zm.82,1.59-3.65,9.24h7.27Z"/><path d="M564.67,404.44h4.13c3.14,0,5.18,1.59,5.18,4.75s-2.35,4.76-5.35,4.76h-2.31v7.24h-1.65Zm1.65,8.07h1.16c2.49,0,4.84-.29,4.84-3.32a3,3,0,0,0-3.31-3.31h-2.69Z"/><path d="M576.72,404.44H581c3,0,4.92,1.27,4.92,4.35a3.94,3.94,0,0,1-3.72,3.86v.05c1.34.17,1.63.89,2.16,2l2.85,6.48h-1.82L583,415.53c-1-2.16-1.68-2.23-3.26-2.23h-1.37v7.89h-1.65Zm1.65,7.42h1.75c2,0,4.18-.75,4.18-3.07,0-2.74-1.94-2.91-4.22-2.91h-1.71Z"/><path d="M610,404.44h2.57l6.12,14.74,6.14-14.74h2.38v16.75h-1.66V406.1h-.05l-6.09,15.09H618l-6.29-15.09h-.05v15.09H610Z"/><path d="M636.48,404.44h1.87L645,421.19h-1.73l-1.8-4.48H633l-1.8,4.48h-1.61Zm.81,1.59-3.65,9.24h7.28Z"/><path d="M649.77,414.09l-6.21-9.65h1.92l5.11,8.19,5.25-8.19h1.8l-6.21,9.65v7.1h-1.66Z"/><path d="M684,416.87c0,2.57-1.15,4.61-3.94,4.61a5.15,5.15,0,0,1-1.73-.29v-1.46a3.78,3.78,0,0,0,1.56.31c1.85,0,2.45-1.46,2.45-3.12V404.44H684Z"/><path d="M700,415.34c0,4.94-3.63,6.14-6.07,6.14s-6.08-1.2-6.08-6.14v-10.9h1.66v10.9c0,2.73,1.51,4.7,4.42,4.7s4.41-2,4.41-4.7v-10.9H700Z"/><path d="M703.8,404.44h2.08l8.52,14.74h.05V404.44h1.66v16.75h-2.23l-8.38-14.44h0v14.44H703.8Z"/><path d="M744,416.87c0,2.57-1.15,4.61-3.94,4.61a5.09,5.09,0,0,1-1.72-.29v-1.46a3.78,3.78,0,0,0,1.56.31c1.84,0,2.44-1.46,2.44-3.12V404.44H744Z"/><path d="M760.05,415.34c0,4.94-3.62,6.14-6.07,6.14s-6.07-1.2-6.07-6.14v-10.9h1.65v10.9c0,2.73,1.51,4.7,4.42,4.7s4.42-2,4.42-4.7v-10.9h1.65Z"/><path d="M763.89,404.44h1.66v15.31h6.72v1.44h-8.38Z"/><path d="M3.79.17H5.28V16.92H3.62V2L.91,4.42,0,3.34Z"/><path d="M22.56,8.54c0,3.51-.72,8.55-5.5,8.55s-5.49-5-5.49-8.55c0-3.91,1-8.54,5.49-8.54S22.56,4.63,22.56,8.54Zm-9.34,0c0,2.79.36,7.11,3.84,7.11s3.84-4.32,3.84-7.11-.36-7.1-3.84-7.1S13.22,5.76,13.22,8.54Z"/><path d="M35.9,8.54c0,3.51-.72,8.55-5.49,8.55s-5.5-5-5.5-8.55c0-3.91,1-8.54,5.5-8.54S35.9,4.63,35.9,8.54Zm-9.33,0c0,2.79.36,7.11,3.84,7.11s3.84-4.32,3.84-7.11-.36-7.1-3.84-7.1S26.57,5.76,26.57,8.54Z"/><path d="M17.06,74.08c2.62,0,5,1.17,5,3.91,0,2.06-1.85,3.43-3.43,4.3,2.28.81,4,1.77,4,4.41,0,3.29-2.88,4.47-5.57,4.47S11.5,89.78,11.5,86.7c0-2.56,1.68-3.62,3.86-4.41C13.63,81.47,12,80.2,12,78,12,75.18,15,74.08,17.06,74.08Zm0,8.83c-1.94.79-3.91,1.46-3.91,3.79,0,1.88,2,3,3.91,3S21,88.86,21,86.56C21,84.45,18.6,83.7,17.06,82.91Zm0-1.22c1.52-.75,3.36-1.83,3.36-3.56s-1.8-2.61-3.36-2.61c-1.75,0-3.38.86-3.38,2.61C13.68,80.05,15.7,81,17.06,81.69Z"/><path d="M35.9,82.62c0,3.51-.72,8.55-5.49,8.55s-5.5-5-5.5-8.55c0-3.91,1-8.54,5.5-8.54S35.9,78.71,35.9,82.62Zm-9.33,0c0,2.79.36,7.11,3.84,7.11s3.84-4.32,3.84-7.11-.36-7.1-3.84-7.1S26.57,79.84,26.57,82.62Z"/><path d="M11.71,157.3c0-5.06,1.9-9.14,7.56-9.14a11.19,11.19,0,0,1,2.69.38l-.14,1.58a7.5,7.5,0,0,0-2.76-.52c-4.35-.08-5.69,3.55-5.69,7h.05a4.45,4.45,0,0,1,3.93-2.07c2.21,0,5.21,1.08,5.21,5.24a5.14,5.14,0,0,1-5.47,5.52C12.65,165.25,11.71,161.24,11.71,157.3Zm1.83,2.35c0,2.07,1.12,4.16,3.6,4.16s3.76-1.71,3.76-4c0-2.45-1.22-3.92-3.55-3.92A3.51,3.51,0,0,0,13.54,159.65Z"/><path d="M35.9,156.7c0,3.51-.72,8.55-5.49,8.55s-5.5-5-5.5-8.55c0-3.91,1-8.54,5.5-8.54S35.9,152.79,35.9,156.7Zm-9.33,0c0,2.79.36,7.11,3.84,7.11s3.84-4.32,3.84-7.11-.36-7.1-3.84-7.1S26.57,153.92,26.57,156.7Z"/><path d="M10.94,233.66l7.54-11.26h2.11v11.45h2.47v1.44H20.59v3.87H18.94v-3.87h-8Zm8-9.6h-.05l-6.43,9.79h6.48Z"/><path d="M35.9,230.78c0,3.5-.72,8.54-5.49,8.54s-5.5-5-5.5-8.54c0-3.91,1-8.55,5.5-8.55S35.9,226.87,35.9,230.78Zm-9.33,0c0,2.78.36,7.1,3.84,7.1s3.84-4.32,3.84-7.1-.36-7.11-3.84-7.11S26.57,228,26.57,230.78Z"/><path d="M11.59,311.79l3.84-4.24c2-2.24,4-4.73,4-6.77a2.91,2.91,0,0,0-2.95-3,7.59,7.59,0,0,0-4,1.2l-.29-1.51a10.49,10.49,0,0,1,4.23-1.13c2.71,0,4.84,1.37,4.84,4.39,0,2.5-2.44,5.4-4.6,7.78l-3,3.31h8v1.44H11.59Z"/><path d="M35.9,304.86c0,3.5-.72,8.54-5.49,8.54s-5.5-5-5.5-8.54c0-3.92,1-8.55,5.5-8.55S35.9,300.94,35.9,304.86Zm-9.33,0c0,2.78.36,7.1,3.84,7.1s3.84-4.32,3.84-7.1-.36-7.11-3.84-7.11S26.57,302.07,26.57,304.86Z"/><line class="cls-3" x1="52.9" y1="378.93" x2="789.27" y2="378.93"/><line class="cls-4" x1="52.9" y1="304.86" x2="789.27" y2="304.86"/><line class="cls-4" x1="52.9" y1="230.78" x2="789.27" y2="230.78"/><line class="cls-4" x1="52.9" y1="156.7" x2="789.27" y2="156.7"/><line class="cls-4" x1="52.9" y1="82.62" x2="789.27" y2="82.62"/><line class="cls-4" x1="52.9" y1="8.54" x2="789.27" y2="8.54"/></g></g></svg>